# Blender 3.1.0
# www.blender.org
mtllib lamp.mtl
o Cube
v 0.500328 0.500328 -0.500328
v 1.391774 -0.500328 -1.391774
v 0.500328 0.500328 0.500328
v 1.391774 -0.500328 1.391774
v -0.500328 0.500328 -0.500328
v -1.391774 -0.500328 -1.391774
v -0.500328 0.500328 0.500328
v -1.391774 -0.500328 1.391774
v 0.500328 0.500328 0.500328
v -0.500328 0.500328 0.500328
v 0.500328 0.500328 -0.500328
v -0.500328 0.500328 -0.500328
v 0.500328 7.468807 0.500328
v -0.500328 7.468807 0.500328
v 0.500328 7.468807 -0.500328
v -0.500328 7.468807 -0.500328
v 0.500328 19.251711 -0.639713
v -0.500328 19.251711 -0.639713
v 0.500328 19.251711 -1.640368
v -0.500328 19.251711 -1.640368
v 0.500328 27.777693 -0.639713
v -0.500328 27.777693 -0.639713
v 0.500328 27.777693 -1.640368
v -0.500328 27.777693 -1.640368
v 0.500328 30.735073 0.830930
v -0.500328 30.735073 0.830930
v 0.500328 31.437426 0.118180
v -0.500328 31.437426 0.118180
v 0.752875 32.445961 2.727367
v -0.752875 32.445961 2.727367
v 0.752875 33.899326 2.333644
v -0.752875 33.899326 2.333644
v 1.183155 32.695240 4.420851
v -1.183155 32.695240 4.420851
v 1.183155 34.904148 5.269472
v -1.183155 34.904148 5.269472
v 1.425832 32.459812 5.048736
v -1.425832 32.459812 5.048736
v 1.425832 34.082172 7.393935
v -1.425832 34.082172 7.393935
v 1.836195 31.177589 5.436764
v -1.836195 31.177589 5.436764
v 1.836195 33.266876 8.456926
v -1.836195 33.266876 8.456926
v 2.340805 30.926476 5.207994
v -2.340805 30.926476 5.207994
v 2.340805 31.937296 9.779185
v -2.340805 31.937296 9.779185
v 2.340805 30.589952 5.282409
v -2.340805 30.589952 5.282409
v 2.340805 31.600773 9.853601
v -2.340805 31.600773 9.853601
v 1.853864 30.695089 5.757865
v -1.853864 30.695089 5.757865
v 1.853864 31.495638 9.378145
v -1.853864 31.495638 9.378145
v 1.853864 31.076122 5.673607
v -1.853864 31.076122 5.673607
v 1.853864 31.876669 9.293888
v -1.853864 31.876669 9.293888
vn -0.0000 0.5003 -0.0000
vn -0.0000 0.3328 0.3736
vn -0.3736 0.3328 -0.0000
vn -0.0000 -0.5003 -0.0000
vn 0.3736 0.3328 -0.0000
vn -0.0000 0.3328 -0.3736
vn -0.0000 -0.0000 0.5003
vn -0.0000 -0.0482 -0.4980
vn -0.0000 -0.0000 -0.5003
vn 0.5003 -0.0000 -0.0000
vn -0.5003 -0.0000 -0.0000
vn -0.0000 0.0482 0.4980
vn -0.0000 0.2167 -0.4510
vn -0.4983 -0.0207 -0.0402
vn -0.0000 -0.2228 0.4480
vn -0.4912 0.0117 -0.0945
vn -0.0000 -0.3715 0.3351
vn -0.0000 0.3347 -0.3719
vn 0.4983 -0.0207 -0.0402
vn -0.0000 0.4666 0.1805
vn -0.0000 -0.4950 0.0729
vn -0.0000 0.4734 -0.1620
vn 0.4912 0.0117 -0.0945
vn -0.4763 0.1260 -0.0872
vn 0.4929 0.0549 -0.0658
vn -0.4929 0.0549 -0.0658
vn -0.0000 -0.4685 -0.1757
vn -0.0000 0.3369 -0.3699
vn -0.0000 -0.1449 -0.4789
vn -0.0000 0.3970 0.3045
vn 0.4763 0.1260 -0.0872
vn -0.0000 0.1080 0.4885
vn -0.0000 0.3528 0.3548
vn 0.4407 0.2194 -0.0896
vn -0.4407 0.2194 -0.0896
vn -0.0000 -0.4885 0.1080
vn -0.0000 -0.1080 -0.4885
vt 0.625000 0.500000
vt 0.375000 0.500000
vt 0.625000 0.750000
vt 0.375000 0.750000
vt 0.625000 0.250000
vt 0.125000 0.500000
vt 0.375000 0.250000
vt 0.625000 0.000000
vt 0.625000 1.000000
vt 0.375000 1.000000
vt 0.375000 0.000000
vt 0.125000 0.750000
vt 0.625000 0.750000
vt 0.625000 1.000000
vt 0.625000 0.000000
vt 0.625000 0.500000
vt 0.625000 0.250000
vt 0.625000 0.750000
vt 0.625000 0.000000
vt 0.625000 1.000000
vt 0.625000 0.500000
vt 0.625000 0.250000
vt 0.625000 0.750000
vt 0.625000 0.000000
vt 0.625000 1.000000
vt 0.625000 0.500000
vt 0.625000 0.250000
vt 0.625000 0.750000
vt 0.625000 0.000000
vt 0.625000 1.000000
vt 0.625000 0.500000
vt 0.625000 0.250000
vt 0.625000 0.750000
vt 0.625000 0.000000
vt 0.625000 1.000000
vt 0.625000 0.500000
vt 0.625000 0.250000
vt 0.625000 0.750000
vt 0.625000 0.000000
vt 0.625000 1.000000
vt 0.625000 0.500000
vt 0.625000 0.250000
vt 0.625000 0.750000
vt 0.625000 0.000000
vt 0.625000 1.000000
vt 0.625000 0.500000
vt 0.625000 0.250000
vt 0.625000 0.750000
vt 0.625000 0.000000
vt 0.625000 1.000000
vt 0.625000 0.500000
vt 0.625000 0.250000
vt 0.625000 0.750000
vt 0.625000 1.000000
vt 0.625000 0.000000
vt 0.625000 0.500000
vt 0.625000 0.250000
vt 0.625000 0.750000
vt 0.625000 0.000000
vt 0.625000 1.000000
vt 0.625000 0.500000
vt 0.625000 0.250000
vt 0.625000 0.750000
vt 0.625000 0.000000
vt 0.625000 1.000000
vt 0.625000 0.500000
vt 0.625000 0.250000
vt 0.625000 0.750000
vt 0.625000 0.000000
vt 0.625000 1.000000
vt 0.625000 0.500000
vt 0.625000 0.250000
vt 0.625000 0.750000
vt 0.875000 0.750000
vt 0.625000 0.000000
vt 0.625000 1.000000
vt 0.625000 0.500000
vt 0.875000 0.500000
vt 0.625000 0.250000
s 0
usemtl Material
f 5/5/1 7/8/1 10/15/1 12/17/1
f 4/4/2 3/3/2 7/9/2 8/10/2
f 8/11/3 7/8/3 5/5/3 6/7/3
f 6/6/4 2/2/4 4/4/4 8/12/4
f 2/2/5 1/1/5 3/3/5 4/4/5
f 6/7/6 5/5/6 1/1/6 2/2/6
f 10/14/7 9/13/7 13/18/7 14/20/7
f 3/3/1 1/1/1 11/16/1 9/13/1
f 1/1/1 5/5/1 12/17/1 11/16/1
f 7/9/1 3/3/1 9/13/1 10/14/1
f 15/21/8 16/22/8 20/27/8 19/26/8
f 11/16/9 12/17/9 16/22/9 15/21/9
f 9/13/10 11/16/10 15/21/10 13/18/10
f 12/17/11 10/15/11 14/19/11 16/22/11
f 20/27/11 18/24/11 22/29/11 24/32/11
f 13/18/10 15/21/10 19/26/10 17/23/10
f 16/22/11 14/19/11 18/24/11 20/27/11
f 14/20/12 13/18/12 17/23/12 18/25/12
f 23/31/13 24/32/13 28/37/13 27/36/13
f 18/25/7 17/23/7 21/28/7 22/30/7
f 19/26/9 20/27/9 24/32/9 23/31/9
f 17/23/10 19/26/10 23/31/10 21/28/10
f 28/37/14 26/34/14 30/39/14 32/42/14
f 21/28/10 23/31/10 27/36/10 25/33/10
f 24/32/11 22/29/11 26/34/11 28/37/11
f 22/30/15 21/28/15 25/33/15 26/35/15
f 32/42/16 30/39/16 34/44/16 36/47/16
f 26/35/17 25/33/17 29/38/17 30/40/17
f 27/36/18 28/37/18 32/42/18 31/41/18
f 25/33/19 27/36/19 31/41/19 29/38/19
f 35/46/20 36/47/20 40/52/20 39/51/20
f 30/40/21 29/38/21 33/43/21 34/45/21
f 31/41/22 32/42/22 36/47/22 35/46/22
f 29/38/23 31/41/23 35/46/23 33/43/23
f 40/52/24 38/49/24 42/55/24 44/57/24
f 33/43/25 35/46/25 39/51/25 37/48/25
f 36/47/26 34/44/26 38/49/26 40/52/26
f 34/45/27 33/43/27 37/48/27 38/50/27
f 42/54/28 41/53/28 45/58/28 46/60/28
f 38/50/29 37/48/29 41/53/29 42/54/29
f 39/51/30 40/52/30 44/57/30 43/56/30
f 37/48/31 39/51/31 43/56/31 41/53/31
f 47/61/32 48/62/32 52/67/32 51/66/32
f 43/56/33 44/57/33 48/62/33 47/61/33
f 41/53/34 43/56/34 47/61/34 45/58/34
f 44/57/35 42/55/35 46/59/35 48/62/35
f 52/67/36 50/64/36 54/69/36 56/72/36
f 45/58/10 47/61/10 51/66/10 49/63/10
f 48/62/11 46/59/11 50/64/11 52/67/11
f 46/60/37 45/58/37 49/63/37 50/65/37
f 55/71/37 56/72/37 60/79/37 59/77/37
f 50/65/36 49/63/36 53/68/36 54/70/36
f 51/66/36 52/67/36 56/72/36 55/71/36
f 49/63/36 51/66/36 55/71/36 53/68/36
f 59/77/36 60/78/36 58/74/36 57/73/36
f 53/68/11 55/71/11 59/77/11 57/73/11
f 56/72/10 54/69/10 58/75/10 60/79/10
f 54/70/32 53/68/32 57/73/32 58/76/32
