# Blender 3.1.0
# www.blender.org
mtllib pot.mtl
o Cube
v 1.300000 1.000000 -1.300000
v 1.000000 -1.000000 -1.000000
v 1.300000 1.000000 1.300000
v 1.000000 -1.000000 1.000000
v -1.300000 1.000000 -1.300000
v -1.000000 -1.000000 -1.000000
v -1.300000 1.000000 1.300000
v -1.000000 -1.000000 1.000000
v 1.300000 1.000175 1.300000
v -1.300000 1.000175 1.300000
v 1.300000 1.000175 -1.300000
v -1.300000 1.000175 -1.300000
v 1.947732 2.160823 1.947732
v -1.947732 2.160823 1.947732
v 1.947732 2.160823 -1.947732
v -1.947732 2.160823 -1.947732
v 1.947732 2.766545 1.947732
v -1.947732 2.766545 1.947732
v 1.947732 2.766545 -1.947732
v -1.947732 2.766545 -1.947732
v 1.493885 3.234158 1.493885
v -1.493885 3.234158 1.493885
v 1.493885 3.234158 -1.493885
v -1.493885 3.234158 -1.493885
v -1.385730 -1.462714 -1.385730
v -1.385730 -1.462714 1.385730
v 1.385730 -1.462714 -1.385730
v 1.385730 -1.462714 1.385730
v -1.385730 -1.768590 -1.385730
v -1.385730 -1.768590 1.385730
v 1.385730 -1.768590 -1.385730
v 1.385730 -1.768590 1.385730
v 1.493885 3.416093 1.493885
v -1.493885 3.416093 1.493885
v 1.493885 3.416093 -1.493885
v -1.493885 3.416093 -1.493885
v 1.247408 3.400556 1.247408
v -1.247408 3.400556 1.247408
v 1.247408 3.400556 -1.247408
v -1.247408 3.400556 -1.247408
v 1.247408 3.218017 1.247408
v -1.247408 3.218017 1.247408
v 1.247408 3.218017 -1.247408
v -1.247408 3.218017 -1.247408
v -1.000000 -1.000000 -0.610065
v 1.300000 1.000000 -0.793084
v -1.300000 1.000000 -0.793084
v 1.000000 -1.000000 -0.610065
v 1.300000 1.000175 -0.793084
v -1.300000 1.000175 -0.793084
v 1.947732 2.160823 -1.188243
v -1.947732 2.160823 -1.188243
v 1.947732 2.766545 -1.188243
v -1.947732 2.766545 -1.188243
v 1.493885 3.234158 -0.911367
v -1.493885 3.234158 -0.911367
v -1.623280 -1.436425 -0.991367
v 1.624588 -1.436425 -0.991367
v -1.623280 -1.794879 -0.991367
v 1.624588 -1.794879 -0.991367
v 1.493885 3.606230 -0.911367
v -1.493885 3.606230 -0.911367
v 1.247408 3.590693 -0.761000
v -1.247408 3.590693 -0.761000
v 1.247408 3.218017 -0.761000
v -1.247408 3.218017 -0.761000
v -1.000000 -1.000000 0.621168
v 1.300000 1.000000 0.807519
v 1.300000 1.000175 0.807519
v 1.947732 2.160823 1.209869
v 1.947732 2.766545 1.209869
v 1.493885 3.234158 0.927954
v -1.623280 -1.436425 1.008075
v -1.623280 -1.794879 1.008075
v 1.493885 3.606230 0.927954
v 1.247408 3.590693 0.774850
v 1.247408 3.218017 0.774850
v -1.300000 1.000000 0.807519
v 1.000000 -1.000000 0.621168
v -1.300000 1.000175 0.807519
v -1.947732 2.160823 1.209869
v -1.947732 2.766545 1.209869
v -1.493885 3.234158 0.927954
v 1.624588 -1.436425 1.008075
v 1.624588 -1.794879 1.008075
v -1.493885 3.606230 0.927954
v -1.247408 3.590693 0.774850
v -1.247408 3.218017 0.774850
v -0.608316 -1.000000 -1.000000
v -0.790811 1.000000 1.300000
v -0.608316 -1.000000 1.000000
v -0.790811 1.000000 -1.300000
v -0.790811 1.000175 1.300000
v -0.790811 1.000175 -1.300000
v -1.184836 2.160823 1.947732
v -1.184836 2.160823 -1.947732
v -1.184836 2.766545 1.947732
v -1.184836 2.766545 -1.947732
v -0.908754 3.234158 1.493885
v -0.908754 3.234158 -1.493885
v -0.987210 -1.436425 -1.624595
v -0.987210 -1.436425 1.623273
v -0.987210 -1.794879 -1.624595
v -0.987210 -1.794879 1.623273
v -0.908754 3.556530 1.493885
v -0.908754 3.556530 -1.493885
v -0.758818 3.540993 1.247408
v -0.758818 3.540993 -1.247408
v -0.758818 3.218017 1.247408
v -0.758818 3.218017 -1.247408
v -0.758818 3.397702 -0.761000
v -0.842962 -1.768590 -0.845385
v -0.758818 3.397702 0.774850
v -0.842962 -1.768590 0.860772
v 0.597328 -1.000000 1.000000
v 0.776527 1.000000 -1.300000
v 0.776527 1.000175 -1.300000
v 1.163435 2.160823 -1.947732
v 1.163435 2.766545 -1.947732
v 0.892339 3.234158 -1.493885
v 0.970676 -1.436425 1.623273
v 0.970676 -1.794879 1.623273
v 0.892339 3.556530 -1.493885
v 0.745111 3.540993 -1.247408
v 0.745111 3.218017 -1.247408
v 0.745111 3.397702 -0.761000
v 0.745111 3.397702 0.774850
v 0.597328 -1.000000 -1.000000
v 0.776527 1.000000 1.300000
v 0.776527 1.000175 1.300000
v 1.163435 2.160823 1.947732
v 1.163435 2.766545 1.947732
v 0.892339 3.234158 1.493885
v 0.970676 -1.436425 -1.624595
v 0.970676 -1.794879 -1.624595
v 0.892339 3.556530 1.493885
v 0.745112 3.540993 1.247408
v 0.745112 3.218017 1.247408
v 0.827736 -1.768590 -0.845385
v 0.827736 -1.768590 0.860772
vn -0.0000 -0.0000 -1.0000
vn -0.0000 -0.1483 0.9889
vn -0.9889 -0.1483 -0.0000
vn -0.5641 0.8017 -0.1977
vn 0.9889 -0.1483 -0.0000
vn -0.0000 -0.1483 -0.9889
vn -0.0000 -0.4873 0.8732
vn -0.0000 -0.0000 1.0000
vn -1.0000 -0.0000 -0.0000
vn 1.0000 -0.0000 -0.0000
vn -0.0000 -0.4873 -0.8732
vn 0.8732 -0.4873 -0.0000
vn -0.8732 -0.4873 -0.0000
vn -0.7176 0.6965 -0.0000
vn -0.0000 0.6965 0.7176
vn -0.0000 0.6965 -0.7176
vn 0.7176 0.6965 -0.0000
vn -0.5120 -0.0000 0.8590
vn 0.5589 0.8036 0.2044
vn 0.1917 0.8003 -0.5682
vn -0.1965 0.8013 0.5651
vn -0.0000 -1.0000 -0.0000
vn -0.8566 -0.0000 -0.5160
vn 0.8451 -0.0000 0.5345
vn 0.4988 -0.0000 -0.8667
vn 0.3201 0.8896 0.3258
vn 0.2388 0.9384 -0.2499
vn -0.2447 0.9353 0.2557
vn -0.3127 0.8949 -0.3184
vn -0.1778 0.9668 0.1838
vn -0.1779 0.9677 -0.1787
vn -0.0629 0.9980 -0.0000
vn 0.3127 0.8949 -0.3184
vn 0.8553 -0.0000 -0.5181
vn 0.5632 0.8021 -0.1984
vn -0.5736 0.8192 -0.0000
vn -0.5598 0.8032 0.2037
vn -0.8465 -0.0000 0.5324
vn -0.3201 0.8896 0.3258
vn -0.3452 0.9385 -0.0000
vn 0.0629 0.9980 -0.0000
vn -0.0330 -0.9995 -0.0000
vn 0.5728 0.8197 -0.0000
vn 0.0337 -0.9994 -0.0000
vn -0.0000 1.0000 -0.0000
vn -0.0000 0.9380 -0.3465
vn -0.0000 0.9347 0.3554
vn -0.0000 0.9980 0.0629
vn -0.2447 0.9353 -0.2557
vn -0.5141 -0.0000 -0.8577
vn -0.0000 0.8191 0.5736
vn -0.1972 0.8017 -0.5642
vn 0.4967 -0.0000 0.8679
vn 0.1910 0.7998 0.5690
vn 0.2388 0.9384 0.2499
vn 0.1731 0.9676 0.1840
vn 0.1732 0.9685 -0.1789
vn 0.3368 0.9416 -0.0000
vn -0.0000 -0.9994 0.0337
vn -0.0000 0.9980 -0.0629
vn -0.0000 -0.9994 -0.0345
vn -0.0000 0.8197 -0.5728
vt 0.992600 0.459432
vt 0.000550 0.980697
vt 0.625000 0.500000
vt 0.654188 0.399438
vt 0.360036 0.925576
vt 0.004692 0.516378
vt 0.625000 0.750000
vt 0.480361 0.446328
vt 0.362106 0.578963
vt 0.822638 0.394053
vt 0.542490 0.996928
vt 0.625000 0.250000
vt 0.999896 0.019745
vt 0.185755 0.933147
vt 0.658797 0.070344
vt 0.484260 0.004426
vt 0.625000 0.000000
vt 0.550652 0.533131
vt 0.625000 1.000000
vt 0.824644 0.063595
vt 0.190947 0.586490
vt 0.479772 0.535645
vt 0.625000 0.750000
vt 0.562036 0.512009
vt 0.625000 0.000000
vt 0.112154 0.511882
vt 0.625000 1.000000
vt 0.479772 0.106913
vt 0.112181 0.512009
vt 0.625000 0.500000
vt 0.477600 0.106430
vt 0.477600 0.533220
vt 0.561897 0.511882
vt 0.625000 0.250000
vt 0.260598 0.642454
vt 0.674107 0.282037
vt 0.759583 0.185991
vt 0.000111 0.281967
vt 0.757642 0.909425
vt 0.260598 0.000105
vt 0.000110 0.282037
vt 0.197232 0.105570
vt 0.259419 0.000104
vt 0.259419 0.639545
vt 0.188440 0.837658
vt 0.673940 0.281967
vt 0.160717 0.642454
vt 0.817014 0.101758
vt 0.674107 0.177234
vt 0.000111 0.177191
vt 0.160717 0.000105
vt 0.825710 0.983600
vt 0.000110 0.177234
vt 0.122275 0.008952
vt 0.159989 0.000104
vt 0.159989 0.639545
vt 0.124196 0.938005
vt 0.673940 0.177191
vt 0.053263 0.567616
vt 0.595582 0.064487
vt 0.078616 0.064471
vt 0.053263 0.074942
vt 0.078635 0.064486
vt 0.053022 0.074603
vt 0.053022 0.565046
vt 0.595434 0.064471
vt 0.076939 0.989686
vt 0.550715 0.011366
vt 0.932713 0.009069
vt 0.077037 0.524441
vt 0.550780 0.453342
vt 0.469451 0.987272
vt 0.475652 0.522030
vt 0.927053 0.452973
vt 0.026389 0.999890
vt 0.073468 0.073725
vt 0.496896 0.000104
vt 0.982057 0.000105
vt 0.020188 0.512104
vt 0.073350 0.926640
vt 0.502756 0.462742
vt 0.525064 0.999890
vt 0.926269 0.073810
vt 0.926250 0.926630
vt 0.527389 0.512230
vt 0.979959 0.464432
vt 0.023262 0.567616
vt 0.595582 0.033008
vt 0.990299 0.006936
vt 0.078616 0.033000
vt 0.006413 0.004084
vt 0.023262 0.074942
vt 0.078635 0.033008
vt 0.023157 0.074603
vt 0.990595 0.996348
vt 0.023157 0.565046
vt 0.011612 0.997226
vt 0.595434 0.033000
vt 0.913826 0.082860
vt 0.625000 0.750000
vt 0.625000 0.000000
vt 0.083646 0.080234
vt 0.625000 1.000000
vt 0.914650 0.920830
vt 0.625000 0.500000
vt 0.625000 0.250000
vt 0.087554 0.921077
vt 0.625000 0.750000
vt 0.997740 0.000115
vt 0.000567 0.002955
vt 0.625000 0.000000
vt 0.625000 1.000000
vt 0.625000 0.500000
vt 0.997740 0.997302
vt 0.625000 0.250000
vt 0.000299 0.999900
vt 0.190151 0.865117
vt 0.625000 0.548742
vt 0.000110 0.890525
vt 0.545154 0.907116
vt 0.625000 0.201258
vt 0.357364 0.856720
vt 0.199888 0.512009
vt 0.625000 0.548742
vt 0.474212 0.511882
vt 0.625000 0.201258
vt 0.327613 0.120533
vt 0.131518 0.282037
vt 0.392349 0.869117
vt 0.542565 0.281967
vt 0.131518 0.177234
vt 0.315097 0.000097
vt 0.357464 0.967383
vt 0.542565 0.177191
vt 0.179423 0.064486
vt 0.494672 0.064471
vt 0.064168 0.916619
vt 0.484825 0.911189
vt 0.006686 0.924682
vt 0.000205 0.195153
vt 0.546152 0.917993
vt 0.999891 0.195233
vt 0.997555 0.805530
vt 0.179423 0.000110
vt 0.003930 0.805719
vt 0.494672 0.000111
vt 0.625000 0.548742
vt 0.915932 0.757711
vt 0.625000 0.201258
vt 0.085619 0.757247
vt 0.625000 0.548742
vt 0.997328 0.803709
vt 0.625000 0.201258
vt 0.000100 0.801508
vt 0.194300 0.654605
vt 0.625000 0.702646
vt 0.002413 0.603752
vt 0.625000 0.702646
vt 0.476826 0.512009
vt 0.546441 0.282037
vt 0.640880 0.164822
vt 0.675544 0.065279
vt 0.546441 0.177234
vt 0.497664 0.064487
vt 0.062078 0.599693
vt 0.000111 0.593413
vt 0.000100 0.810300
vt 0.497664 0.000110
vt 0.997555 0.194315
vt 0.914845 0.243115
vt 0.625000 0.702646
vt 0.625000 0.702646
vt 0.997726 0.192852
vt 0.550652 0.620725
vt 0.625000 0.047354
vt 0.356994 0.646403
vt 0.197342 0.511882
vt 0.625000 0.047354
vt 0.668715 0.901957
vt 0.127745 0.281967
vt 0.678004 0.999903
vt 0.127745 0.177191
vt 0.176510 0.064471
vt 0.488133 0.594606
vt 0.546152 0.586969
vt 0.999891 0.810313
vt 0.000100 0.192737
vt 0.176510 0.000111
vt 0.625000 0.047354
vt 0.083524 0.241353
vt 0.625000 0.047354
vt 0.000978 0.191023
vt 0.661993 0.137096
vt 0.482123 0.090445
vt 0.625000 0.951039
vt 0.819823 0.129965
vt 0.625000 0.298961
vt 0.999896 0.105626
vt 0.625000 0.951039
vt 0.479772 0.190877
vt 0.477600 0.449636
vt 0.625000 0.298961
vt 0.807720 0.775033
vt 0.260598 0.125904
vt 0.259419 0.514316
vt 0.146037 0.718235
vt 0.160717 0.125904
vt 0.934784 0.820445
vt 0.159989 0.514316
vt 0.005361 0.770743
vt 0.053263 0.171429
vt 0.053022 0.468997
vt 0.536566 0.085850
vt 0.944433 0.081107
vt 0.196202 0.000100
vt 0.477809 0.080167
vt 0.999895 0.074178
vt 0.196091 0.999900
vt 0.196431 0.000100
vt 0.000105 0.171429
vt 0.199954 0.999900
vt 0.000104 0.468997
vt 0.244209 0.083322
vt 0.625000 0.951039
vt 0.625000 0.298961
vt 0.247436 0.917088
vt 0.195016 0.002530
vt 0.625000 0.951039
vt 0.199581 0.999700
vt 0.625000 0.298961
vt 0.207989 0.792618
vt 0.240426 0.240010
vt 0.203895 0.199613
vt 0.240375 0.765109
vt 0.820127 0.326331
vt 0.625000 0.449666
vt 0.995080 0.371469
vt 0.625000 0.449666
vt 0.477600 0.192358
vt 0.135927 0.243273
vt 0.259419 0.128847
vt 0.000097 0.192715
vt 0.159989 0.128847
vt 0.053022 0.173347
vt 0.941452 0.377505
vt 0.999895 0.383672
vt 0.798455 0.999873
vt 0.000105 0.173347
vt 0.798391 0.999485
vt 0.751594 0.917868
vt 0.625000 0.449666
vt 0.625000 0.449666
vt 0.797824 0.997728
vt 0.789192 0.795396
vt 0.784755 0.202057
vt 0.658334 0.332776
vt 0.479981 0.357676
vt 0.625000 0.800334
vt 0.625000 0.800334
vt 0.479772 0.449326
vt 0.800705 0.307182
vt 0.260598 0.513126
vt 0.160717 0.513126
vt 0.934784 0.257761
vt 0.053263 0.468423
vt 0.538608 0.380979
vt 0.798500 0.000173
vt 0.483913 0.388364
vt 0.796951 0.003748
vt 0.000105 0.468423
vt 0.749505 0.085688
vt 0.625000 0.800334
vt 0.792874 0.000100
vt 0.625000 0.800334
vt 0.754615 0.240021
vt 0.754561 0.765123
s 0
usemtl Material
f 92/197/1 5/12/1 12/34/1 94/202/1
f 91/196/2 90/194/2 7/16/2 8/20/2
f 45/117/3 47/120/3 5/11/3 6/14/3
f 45/117/4 6/14/4 25/67/4 57/137/4
f 79/176/5 68/157/5 3/6/5 4/9/5
f 128/256/6 116/237/6 1/1/6 2/4/6
f 130/260/7 9/22/7 13/35/7 131/262/7
f 129/258/8 3/7/8 9/23/8 130/259/8
f 78/175/9 7/17/9 10/25/9 80/178/9
f 46/118/10 1/3/10 11/30/10 49/124/10
f 96/206/1 16/45/1 20/57/1 98/210/1
f 94/201/11 12/32/11 16/44/11 96/205/11
f 49/123/12 11/29/12 15/41/12 51/128/12
f 80/177/13 10/26/13 14/38/13 81/180/13
f 82/182/14 18/50/14 22/61/14 83/183/14
f 51/127/10 15/42/10 19/54/10 53/132/10
f 81/179/9 14/39/9 18/52/9 82/181/9
f 131/261/8 13/37/8 17/48/8 132/264/8
f 83/183/9 22/61/9 34/90/9 86/188/9
f 132/263/15 17/47/15 21/59/15 133/265/15
f 98/209/16 20/56/16 24/65/16 100/212/16
f 53/131/17 19/53/17 23/63/17 55/135/17
f 102/214/18 26/69/18 30/78/18 104/217/18
f 79/176/19 4/9/19 28/73/19 84/184/19
f 128/256/20 2/4/20 27/71/20 134/266/20
f 91/196/21 8/20/21 26/69/21 102/214/21
f 140/276/22 85/186/22 32/84/22 122/247/22
f 57/137/23 25/67/23 29/75/23 59/139/23
f 84/184/24 28/73/24 32/85/24 85/185/24
f 134/266/25 27/71/25 31/81/25 135/268/25
f 86/187/26 34/91/26 38/102/26 87/190/26
f 133/265/8 21/59/8 33/87/8 136/270/8
f 100/212/1 24/65/1 36/96/1 106/222/1
f 55/135/10 23/63/10 35/93/10 61/144/10
f 137/272/1 37/100/1 41/108/1 138/274/1
f 136/269/27 33/89/27 37/99/27 137/271/27
f 106/221/28 36/97/28 40/107/28 108/226/28
f 61/143/29 35/95/29 39/104/29 63/148/29
f 113/233/30 88/192/30 42/110/30 109/227/30
f 108/225/8 40/106/8 44/115/8 110/230/8
f 63/147/9 39/105/9 43/113/9 65/151/9
f 87/189/10 38/101/10 42/111/10 88/191/10
f 40/106/10 64/149/10 66/153/10 44/115/10
f 76/171/9 63/147/9 65/151/9 77/172/9
f 110/229/31 44/116/31 66/154/31 111/231/31
f 75/169/32 61/143/32 63/148/32 76/170/32
f 72/164/10 55/135/10 61/144/10 75/168/10
f 36/97/33 62/145/33 64/150/33 40/107/33
f 27/72/34 58/138/34 60/141/34 31/82/34
f 73/165/9 57/137/9 59/139/9 74/166/9
f 135/267/22 31/83/22 60/142/22 139/275/22
f 2/5/35 48/122/35 58/138/35 27/72/35
f 71/163/17 53/131/17 55/135/17 72/164/17
f 24/66/9 56/136/9 62/146/9 36/98/9
f 16/45/9 52/129/9 54/133/9 20/57/9
f 70/161/10 51/127/10 53/132/10 71/162/10
f 20/58/14 54/134/14 56/136/14 24/66/14
f 12/33/13 50/125/13 52/130/13 16/46/13
f 69/159/12 49/123/12 51/128/12 70/160/12
f 68/156/10 46/118/10 49/124/10 69/158/10
f 5/12/9 47/121/9 50/126/9 12/34/9
f 2/5/5 1/2/5 46/119/5 48/122/5
f 67/155/36 45/117/36 57/137/36 73/165/36
f 67/155/3 78/174/3 47/120/3 45/117/3
f 8/21/3 7/18/3 78/174/3 67/155/3
f 8/21/37 67/155/37 73/165/37 26/70/37
f 3/7/10 68/156/10 69/158/10 9/23/10
f 9/24/12 69/159/12 70/160/12 13/36/12
f 13/37/10 70/161/10 71/162/10 17/48/10
f 17/49/17 71/163/17 72/164/17 21/60/17
f 26/70/38 73/165/38 74/166/38 30/79/38
f 21/60/10 72/164/10 75/168/10 33/88/10
f 33/89/39 75/169/39 76/170/39 37/99/39
f 37/100/9 76/171/9 77/172/9 41/108/9
f 64/149/10 87/189/10 88/191/10 66/153/10
f 111/231/40 66/154/40 88/192/40 113/233/40
f 62/145/41 86/187/41 87/190/41 64/150/41
f 58/138/10 84/184/10 85/185/10 60/141/10
f 139/275/42 60/142/42 85/186/42 140/276/42
f 48/122/43 79/176/43 84/184/43 58/138/43
f 56/136/9 83/183/9 86/188/9 62/146/9
f 52/129/9 81/179/9 82/181/9 54/133/9
f 54/134/14 82/182/14 83/183/14 56/136/14
f 50/125/13 80/177/13 81/180/13 52/130/13
f 47/121/9 78/175/9 80/178/9 50/126/9
f 48/122/5 46/119/5 68/157/5 79/176/5
f 59/140/44 112/232/44 114/234/44 74/167/44
f 126/254/45 111/231/45 113/233/45 127/255/45
f 29/76/22 103/215/22 112/232/22 59/140/22
f 125/253/46 110/229/46 111/231/46 126/254/46
f 124/251/8 108/225/8 110/230/8 125/252/8
f 127/255/47 113/233/47 109/227/47 138/273/47
f 123/249/48 106/221/48 108/226/48 124/250/48
f 34/91/49 105/219/49 107/223/49 38/102/49
f 38/103/1 107/224/1 109/228/1 42/112/1
f 120/244/1 100/212/1 106/222/1 123/248/1
f 22/62/8 99/211/8 105/220/8 34/92/8
f 25/68/50 101/213/50 103/216/50 29/77/50
f 74/167/22 114/234/22 104/218/22 30/80/22
f 115/235/51 91/196/51 102/214/51 121/245/51
f 6/15/52 89/193/52 101/213/52 25/68/52
f 121/245/8 102/214/8 104/217/8 122/246/8
f 119/243/16 98/209/16 100/212/16 120/244/16
f 18/51/15 97/207/15 99/211/15 22/62/15
f 14/39/8 95/203/8 97/208/8 18/52/8
f 117/239/11 94/201/11 96/205/11 118/241/11
f 118/240/1 96/206/1 98/210/1 119/242/1
f 7/19/8 90/195/8 93/199/8 10/27/8
f 10/28/7 93/200/7 95/204/7 14/40/7
f 6/15/6 5/13/6 92/198/6 89/193/6
f 115/235/2 129/257/2 90/194/2 91/196/2
f 116/236/1 92/197/1 94/202/1 117/238/1
f 1/3/1 116/236/1 117/238/1 11/30/1
f 4/10/2 3/8/2 129/257/2 115/235/2
f 15/42/1 118/240/1 119/242/1 19/54/1
f 11/31/11 117/239/11 118/241/11 15/43/11
f 19/55/16 119/243/16 120/244/16 23/64/16
f 28/74/53 121/245/53 122/246/53 32/86/53
f 4/10/54 115/235/54 121/245/54 28/74/54
f 23/64/1 120/244/1 123/248/1 35/94/1
f 35/95/55 123/249/55 124/250/55 39/104/55
f 77/173/56 127/255/56 138/273/56 41/109/56
f 39/105/8 124/251/8 125/252/8 43/113/8
f 43/114/57 125/253/57 126/254/57 65/152/57
f 65/152/58 126/254/58 127/255/58 77/173/58
f 112/232/22 139/275/22 140/276/22 114/234/22
f 103/215/59 135/267/59 139/275/59 112/232/59
f 105/219/60 136/269/60 137/271/60 107/223/60
f 107/224/1 137/272/1 138/274/1 109/228/1
f 99/211/8 133/265/8 136/270/8 105/220/8
f 101/213/1 134/266/1 135/268/1 103/216/1
f 114/234/61 140/276/61 122/247/61 104/218/61
f 89/193/62 128/256/62 134/266/62 101/213/62
f 97/207/15 132/263/15 133/265/15 99/211/15
f 95/203/8 131/261/8 132/264/8 97/208/8
f 90/195/8 129/258/8 130/259/8 93/199/8
f 93/200/7 130/260/7 131/262/7 95/204/7
f 89/193/6 92/198/6 116/237/6 128/256/6
